<?xml version="1.0" standalone="no"?>
<!DOCTYPE svg PUBLIC "-//W3C//DTD SVG 20010904//EN"
 "http://www.w3.org/TR/2001/REC-SVG-20010904/DTD/svg10.dtd">
<svg version="1.0" xmlns="http://www.w3.org/2000/svg"
 width="300.000000pt" height="300.000000pt" viewBox="0 0 300.000000 300.000000"
 preserveAspectRatio="xMidYMid meet">
<g transform="translate(0.000000,300.000000) scale(0.100000,-0.100000)"
style="fill:currentColor" stroke="none">
<path d="M1459 2298 c-283 -433 -514 -784 -795 -1208 -82 -124 -150 -228 -152
-232 -2 -4 129 37 290 91 161 54 294 95 296 90 2 -5 -76 -165 -172 -356 -97
-190 -175 -348 -173 -349 2 -2 66 70 144 159 77 89 238 272 358 407 120 135
299 337 399 449 100 112 190 215 201 229 19 26 19 26 0 18 -41 -16 -380 -116
-392 -116 -7 0 -13 3 -13 8 2 16 286 566 295 569 6 1 51 -79 102 -180 168
-335 212 -401 308 -462 63 -40 209 -88 258 -83 l35 3 -345 690 c-190 380 -348
694 -353 698 -4 5 -135 -187 -291 -425z"/>
</g>
</svg>
